/* XPM */
static char * logo_xpm[] = {
"20 20 282 2",
"  	c None",
". 	c #CED8E1",
"+ 	c #6E859A",
"@ 	c #5A738B",
"# 	c #59738B",
"$ 	c #698196",
"% 	c #A2AEB9",
"& 	c #899AA9",
"* 	c #8093A4",
"= 	c #91A0AE",
"- 	c #CFD2D5",
"; 	c #DDDDDD",
"> 	c #DDDDDE",
", 	c #DFDFDF",
"' 	c #FFFFFF",
") 	c #ABB6BF",
"! 	c #2C557C",
"~ 	c #0E3D6A",
"{ 	c #2F587E",
"] 	c #95AABE",
"^ 	c #6785A1",
"/ 	c #567797",
"( 	c #7590AA",
"_ 	c #E6EBF0",
": 	c #FEFEFF",
"< 	c #FBFEFE",
"[ 	c #F9FDFE",
"} 	c #FAFDFE",
"| 	c #FBFDFE",
"1 	c #F6F6F6",
"2 	c #A6B1BA",
"3 	c #275179",
"4 	c #073866",
"5 	c #063765",
"6 	c #29547B",
"7 	c #95A9BD",
"8 	c #63829F",
"9 	c #517494",
"0 	c #718EA7",
"a 	c #E7EBF0",
"b 	c #C2EAF8",
"c 	c #98DCF3",
"d 	c #9BDCF4",
"e 	c #9ADCF4",
"f 	c #BFE9F7",
"g 	c #FEFFFF",
"h 	c #F5F5F5",
"i 	c #28527A",
"j 	c #0A3A68",
"k 	c #093A67",
"l 	c #2B557C",
"m 	c #93A8BC",
"n 	c #66829E",
"o 	c #547593",
"p 	c #738EA6",
"q 	c #E6EAEF",
"r 	c #F3FAFD",
"s 	c #6ECEEF",
"t 	c #08ABE4",
"u 	c #0AACE4",
"v 	c #09ABE4",
"w 	c #66CBEE",
"x 	c #F0FAFD",
"y 	c #B2BAC1",
"z 	c #5B7C99",
"A 	c #456A8C",
"B 	c #5C7C9A",
"C 	c #ACBCCC",
"D 	c #86A2B8",
"E 	c #7A99B1",
"F 	c #91ABBF",
"G 	c #EBEFF2",
"H 	c #6ACCEF",
"I 	c #00A9E4",
"J 	c #62C9EE",
"K 	c #B7BFC5",
"L 	c #6D8AA5",
"M 	c #5A7A99",
"N 	c #5A7A98",
"O 	c #6E89A4",
"P 	c #A9CEE1",
"Q 	c #6AC7EA",
"R 	c #5DC2E7",
"S 	c #5EC2E7",
"T 	c #7ACCEA",
"U 	c #E7F5FB",
"V 	c #69CCEF",
"W 	c #62C9ED",
"X 	c #A5B1BA",
"Y 	c #0F3E6A",
"Z 	c #2F567D",
"` 	c #7BB8D4",
" .	c #1FB5EA",
"..	c #08ACE6",
"+.	c #34BAEA",
"@.	c #DAF2FA",
"#.	c #82D4F1",
"$.	c #2EB8E8",
"%.	c #2FB8E8",
"&.	c #7CD2F0",
"*.	c #F0F9FD",
"=.	c #A7B2BB",
"-.	c #073765",
";.	c #2B537A",
">.	c #7DB9D5",
",.	c #1AB3E9",
"'.	c #30B8E8",
").	c #DCF3FA",
"!.	c #FDFEFE",
"~.	c #E1F4FB",
"{.	c #CDEDF9",
"].	c #CEEEF9",
"^.	c #DFF4FB",
"/.	c #FCFEFE",
"(.	c #F6F6F5",
"_.	c #265179",
":.	c #083967",
"<.	c #083866",
"[.	c #1CB4E8",
"}.	c #03AAE4",
"|.	c #31B9E8",
"1.	c #DBF2FA",
"2.	c #FEFEFE",
"3.	c #F5F5F4",
"4.	c #B6BEC4",
"5.	c #547595",
"6.	c #537594",
"7.	c #6986A1",
"8.	c #A0CDE0",
"9.	c #56C7ED",
"0.	c #47C0EB",
"a.	c #68CBEE",
"b.	c #E0F1F8",
"c.	c #EFF2F6",
"d.	c #F0F2F6",
"e.	c #EFF2F5",
"f.	c #F3F5F8",
"g.	c #E9F8FC",
"h.	c #DEEDF1",
"i.	c #C1C5CA",
"j.	c #8AA2B7",
"k.	c #7A95AD",
"l.	c #8CA2B7",
"m.	c #AAD4E6",
"n.	c #52C5ED",
"o.	c #41BFEA",
"p.	c #41BFEB",
"q.	c #67C7EA",
"r.	c #B4C9D8",
"s.	c #89A0B5",
"t.	c #869EB4",
"u.	c #859DB3",
"v.	c #A8B9C9",
"w.	c #F4F6F8",
"x.	c #C8ECF8",
"y.	c #5AC7ED",
"z.	c #4CBBE2",
"A.	c #B6BEC5",
"B.	c #517493",
"C.	c #6B87A1",
"D.	c #8DC6DE",
"E.	c #19B2E8",
"F.	c #36B6E4",
"G.	c #97B5C9",
"H.	c #567796",
"I.	c #839CB2",
"J.	c #F1F4F6",
"K.	c #B3E5F6",
"L.	c #15B0E6",
"M.	c #03A2D9",
"N.	c #517393",
"O.	c #8EC6DF",
"P.	c #1AB2E8",
"Q.	c #97B5CA",
"R.	c #849CB3",
"S.	c #03A3DA",
"T.	c #B6BEC6",
"U.	c #6786A2",
"V.	c #527594",
"W.	c #527494",
"X.	c #6C88A2",
"Y.	c #8EC6DE",
"Z.	c #97B6CA",
"`.	c #587897",
" +	c #B5E6F7",
".+	c #15B1E8",
"++	c #04A4DC",
"@+	c #BFC6CA",
"#+	c #829BB2",
"$+	c #738EA8",
"%+	c #849BB1",
"&+	c #A8D3E5",
"*+	c #4BC2EC",
"=+	c #3ABCE9",
"-+	c #3BBCEA",
";+	c #62C6EA",
">+	c #AEC5D5",
",+	c #7590A9",
"'+	c #738FA9",
")+	c #728EA8",
"!+	c #9AAEC0",
"~+	c #E0E6EC",
"{+	c #DDE3EA",
"]+	c #B1D5E6",
"^+	c #48B7E0",
"/+	c #45B5DD",
"(+	c #B1BAC1",
"_+	c #3A6185",
":+	c #3A6085",
"<+	c #537493",
"[+	c #94C6DC",
"}+	c #3FBFEC",
"|+	c #2FB9E9",
"1+	c #55C1E7",
"2+	c #8FAEC3",
"3+	c #3F6387",
"4+	c #3B6186",
"5+	c #396085",
"6+	c #6E8BA6",
"7+	c #3F678A",
"8+	c #35668C",
"9+	c #7497B0",
"0+	c #234F77",
"a+	c #043664",
"b+	c #285178",
"c+	c #7AB7D3",
"d+	c #18B2E8",
"e+	c #2FB3E1",
"f+	c #7298B3",
"g+	c #0C3B67",
"h+	c #053665",
"i+	c #4A6D8F",
"j+	c #0B3B68",
"k+	c #0A3764",
"l+	c #5E7A95",
"m+	c #A7B1BB",
"n+	c #7CB8D4",
"o+	c #19B3E9",
"p+	c #00AAE4",
"q+	c #31B4E2",
"r+	c #749AB4",
"s+	c #0E3D69",
"t+	c #4E7091",
"u+	c #5F7E9C",
"v+	c #0C3C69",
"w+	c #0A3B68",
"x+	c #5F7D98",
"y+	c #A8B2BC",
"z+	c #29537A",
"A+	c #0B3A68",
"B+	c #2D547B",
"C+	c #7CB9D4",
"D+	c #1BB4E9",
"E+	c #04AAE4",
"F+	c #04ABE5",
"G+	c #32B4E2",
"H+	c #749AB5",
"I+	c #4D7091",
"J+	c #60809D",
"K+	c #0F3E6B",
"L+	c #0D3D69",
"M+	c #627D9A",
"N+	c #D3DBE4",
"O+	c #778FA7",
"P+	c #64809A",
"Q+	c #64809B",
"R+	c #778EA5",
"S+	c #A6CADB",
"T+	c #6CC7E7",
"U+	c #5FC1E4",
"V+	c #5FC1E3",
"W+	c #7BC7E0",
"X+	c #8AA5B7",
"Y+	c #174169",
"Z+	c #0A3863",
"`+	c #0B3964",
" @	c #50708E",
".@	c #91A5B8",
"+@	c #67839D",
"@@	c #65809B",
"#@	c #65819B",
"$@	c #9EB0C2",
". + @ # $ % & * * = - ; > ; ; ; ; ; , ' ",
") ! ~ ~ { ] ^ / / ( _ : < [ } } | ' ' 1 ",
"2 3 4 5 6 7 8 9 9 0 a | b c d e f } g h ",
"2 i j k l m n o o p q r s t u v w x g 1 ",
"y z A A B C D E E F G r H I I I J x g 1 ",
"K L M N O P Q R S T U r V I I I W x g 1 ",
"X ! Y Y Z `  .....+.@.r #.$.%.$.&.*.: 1 ",
"=.3 4 -.;.>.,.I I '.).!.~.{.].].^./.g (.",
"2 _.:.<.;.` [.}.}.|.1.: 2.!.!.2.2.' g 3.",
"4.^ 5.6.7.8.9.0.0.a.b.c.d.e.f.' ' } g.h.",
"i.j.k.k.l.m.n.o.p.q.r.s.t.u.v.w.!.x.y.z.",
"A.^ 9 B.C.D.E.I I F.G.H.9 9 I.J.!.K.L.M.",
"A.^ 9 N.C.O.P.I I F.Q.H.9 9 R.J.!.K.L.S.",
"T.U.V.W.X.Y.P.I I F.Z.`.V.W.u.J.!. +.+++",
"@+#+$+$+%+&+*+=+-+;+>+,+'+)+!+~+{+]+^+/+",
"(+N._+:+<+[+}+$.|+1+2+3+4+5+6+#+A 7+8+9+",
"2 0+a+a+b+c+d+I I e+f+g+a+h+i+B j+-.k+l+",
"m+_.4 -.;.n+o+I p+q+r+s+4 <.t+u+v+4 w+x+",
"y+z+j+A+B+C+D+E+F+G+H+s+4 <.I+J+K+j+L+M+",
"N+O+P+Q+R+S+T+U+V+W+X+Y+Z+`+ @.@+@@@#@$@"};
