/* XPM */
static char * logo_w_xpm[] = {
"20 20 137 2",
"  	g None",
". 	g #D7D7D7",
"+ 	g #828282",
"@ 	g #6F6F6F",
"# 	g #7E7E7E",
"$ 	g #ACACAC",
"% 	g #979797",
"& 	g #909090",
"* 	g #9E9E9E",
"= 	g #D1D1D1",
"- 	g #DDDDDD",
"; 	g #DFDFDF",
"> 	g #FFFFFF",
", 	g #B4B4B4",
"' 	g #4F4F4F",
") 	g #363636",
"! 	g #525252",
"~ 	g #A7A7A7",
"{ 	g #818181",
"] 	g #727272",
"^ 	g #8C8C8C",
"/ 	g #EAEAEA",
"( 	g #FEFEFE",
"_ 	g #FDFDFD",
": 	g #FCFCFC",
"< 	g #F6F6F6",
"[ 	g #AFAFAF",
"} 	g #4B4B4B",
"| 	g #313131",
"1 	g #303030",
"2 	g #4E4E4E",
"3 	g #A6A6A6",
"4 	g #8A8A8A",
"5 	g #EBEBEB",
"6 	g #E3E3E3",
"7 	g #CFCFCF",
"8 	g #D0D0D0",
"9 	g #E1E1E1",
"0 	g #F5F5F5",
"a 	g #4C4C4C",
"b 	g #333333",
"c 	g #A5A5A5",
"d 	g #707070",
"e 	g #F9F9F9",
"f 	g #BCBCBC",
"g 	g #8E8E8E",
"h 	g #8D8D8D",
"i 	g #B8B8B8",
"j 	g #F8F8F8",
"k 	g #B9B9B9",
"l 	g #777777",
"m 	g #656565",
"n 	g #BABABA",
"o 	g #949494",
"p 	g #EEEEEE",
"q 	g #898989",
"r 	g #B6B6B6",
"s 	g #BDBDBD",
"t 	g #868686",
"u 	g #757575",
"v 	g #858585",
"w 	g #C8C8C8",
"x 	g #F2F2F2",
"y 	g #373737",
"z 	g #515151",
"A 	g #ADADAD",
"B 	g #999999",
"C 	g #A1A1A1",
"D 	g #EDEDED",
"E 	g #C5C5C5",
"F 	g #C2C2C2",
"G 	g #F7F7F7",
"H 	g #B0B0B0",
"I 	g #4D4D4D",
"J 	g #AEAEAE",
"K 	g #969696",
"L 	g #9F9F9F",
"M 	g #EFEFEF",
"N 	g #F0F0F0",
"O 	g #E7E7E7",
"P 	g #E8E8E8",
"Q 	g #323232",
"R 	g #8B8B8B",
"S 	g #B2B2B2",
"T 	g #A9A9A9",
"U 	g #C4C4C4",
"V 	g #919191",
"W 	g #CCCCCC",
"X 	g #B5B5B5",
"Y 	g #C6C6C6",
"Z 	g #9D9D9D",
"` 	g #9A9A9A",
" .	g #B7B7B7",
"..	g #E5E5E5",
"+.	g #B3B3B3",
"@.	g #838383",
"#.	g #959595",
"$.	g #989898",
"%.	g #F4F4F4",
"&.	g #DCDCDC",
"*.	g #939393",
"=.	g #6E6E6E",
"-.	g #848484",
";.	g #B1B1B1",
">.	g #737373",
",.	g #CBCBCB",
"'.	g #A4A4A4",
").	g #C1C1C1",
"!.	g #ABABAB",
"~.	g #E2E2E2",
"{.	g #A2A2A2",
"].	g #A0A0A0",
"^.	g #5B5B5B",
"/.	g #5E5E5E",
"(.	g #5C5C5C",
"_.	g #5A5A5A",
":.	g #878787",
"<.	g #616161",
"[.	g #494949",
"}.	g #2F2F2F",
"|.	g #929292",
"1.	g #343434",
"2.	g #686868",
"3.	g #767676",
"4.	g #9B9B9B",
"5.	g #6B6B6B",
"6.	g #7A7A7A",
"7.	g #353535",
"8.	g #797979",
"9.	g #9C9C9C",
"0.	g #7B7B7B",
"a.	g #DADADA",
"b.	g #7C7C7C",
"c.	g #C3C3C3",
"d.	g #3B3B3B",
"e.	g #7F7F7F",
"f.	g #7D7D7D",
". + @ @ # $ % & & * = - - - - - - - ; > ",
", ' ) ) ! ~ { ] ] ^ / ( _ : : : _ > > < ",
"[ } | 1 2 3 # @ @ 4 5 _ 6 7 8 8 9 : > 0 ",
"[ a b b ' c # d d 4 / e f ^ g h i j > < ",
"k l m m l n * o o ~ p e n q q q r j > < ",
"s t u u v w r [ [ s x e k q q q r j > < ",
"[ ' y y z A B h h C D e E * * * F G ( < ",
"H } | 1 I J K q q L M ( N O P P N ( > 0 ",
"[ } Q | I A % R R L p ( ( ( ( ( ( > > 0 ",
"s { d d + E S T T i p x x x 0 > > : 0 / ",
"U * V V L W [ ~ ~ X Y Z ` B  .< ( ..+.3 ",
"s { @ @ @.f #.q q * H ] @ @ $.%.( &.*.v ",
"s { @ =.@.f K q q * H ] @ @ B %.( &.*.v ",
"s { d @ -.f K q q * ;.>.d @ B %.( - o t ",
"E % 4 4 $.,.$ '.'.+.).^ R 4 !...~.7 {.].",
"k =.^.^.@ s ~ * L A T /.(._.:.% m <./.V ",
"[ [.}.}.} $ #.q q ` |.1.}.}.2.l 1.1 | 3.",
"[ } | 1 I A K q 4 4.o ) | | 5.6.7.| 1.8.",
";.I 1.b ' J % R ^ 9.o ) | | 5.0.y 1.) 6.",
"a.R b.b.R c.r [ J k ].d.| Q 5.{.e.b.f.A "};
